<svg width="18" height="16" viewBox="0 0 18 16" fill="none" xmlns="http://www.w3.org/2000/svg">
<path fill-rule="evenodd" clip-rule="evenodd" d="M16.8584 7.78567C16.3154 6.56236 15.2479 5.70873 13.9864 5.30915C12.8812 4.96519 11.8218 4.96196 10.9551 4.94906C9.66337 4.92434 5.7268 4.88672 5.7268 4.88672L7.5529 3.16476C8.66789 2.03664 6.80932 0.0524369 5.57263 0.875267C5.09554 1.19343 4.26322 1.84158 2.96423 3.13789C2.04337 4.05584 1.41731 4.82008 1.00792 5.37794C0.552699 5.99922 0.552699 6.8387 1.00792 7.45998C1.41731 8.01892 2.04337 8.78101 2.96423 9.69896C4.26322 10.9963 5.09554 11.6445 5.57263 11.9627C6.80161 12.7838 8.66687 10.8002 7.5529 9.67316L5.71951 8.14253C5.79764 8.14146 9.51233 8.11029 10.9551 8.08234C11.6854 8.07027 12.4361 8.0418 13.1478 8.23605C13.7333 8.41125 14.0312 8.63483 14.2437 9.05296C14.7024 10.0234 14.7083 11.5589 13.8645 12.341C13.4937 12.6775 12.853 12.915 12.1072 13.0257C11.8145 13.0719 10.8488 13.1418 10.9655 14.4252C11.0832 15.7151 12.0239 15.6968 12.4291 15.6527C13.4124 15.5388 14.5364 15.2905 15.5531 14.4929C16.5531 13.6865 17.0967 12.4976 17.2667 11.2436C17.4201 10.0856 17.3305 8.86396 16.8584 7.78567Z" fill="#0073E6"/>
</svg>
